<svg xmlns="http://www.w3.org/2000/svg" viewBox="0 0 512 512" fill="none">
  <defs>
    <linearGradient id="goldGradientIcon" x1="0%" y1="0%" x2="100%" y2="100%">
      <stop offset="0%" style="stop-color:#FFD700;stop-opacity:1" />
      <stop offset="100%" style="stop-color:#FF8C00;stop-opacity:1" />
    </linearGradient>
    <filter id="dropShadow" x="-10%" y="-10%" width="120%" height="120%">
      <feGaussianBlur in="SourceAlpha" stdDeviation="15"/>
      <feOffset dx="0" dy="10" result="offsetblur"/>
      <feComponentTransfer>
        <feFuncA type="linear" slope="0.5"/>
      </feComponentTransfer>
      <feMerge> 
        <feMergeNode/>
        <feMergeNode in="SourceGraphic"/> 
      </feMerge>
    </filter>
  </defs>

  <path d="M256 60 L360 60 C380 60 390 80 380 100 L350 160 L420 160 C440 160 450 180 430 200 L230 460 C210 480 190 460 200 440 L240 320 L160 320 C140 320 130 300 140 280 L180 160 L120 160 C100 160 90 140 100 120 L130 60 L256 60 Z" 
        fill="url(#goldGradientIcon)" 
        filter="url(#dropShadow)" />
        
</svg>